<svg width="512" height="150" viewBox="0 0 512 150" fill="none" xmlns="http://www.w3.org/2000/svg">
<path d="M484.918 129.77H464.26V119.558H484.918C487.035 119.558 489.005 119.18 490.83 118.487C492.729 117.794 494.334 116.848 495.722 115.651C497.035 114.452 498.13 113.066 498.933 111.49C499.737 109.914 500.101 108.212 500.101 106.447L500.028 74.4438V47.5111H511.927L512 106.447C512 109.536 511.343 112.498 509.956 115.335C508.569 118.235 506.598 120.756 504.043 122.962C501.488 125.168 498.569 126.87 495.356 128.005C492.072 129.202 488.568 129.77 484.918 129.77Z" fill="#0074CC"/>
<path d="M425.352 119.432C427.469 119.432 429.44 119.117 431.265 118.424C433.163 117.731 434.769 116.785 436.156 115.651C437.47 114.452 438.565 113.066 439.368 111.427C440.171 109.851 440.535 108.149 440.535 106.321V71.4638C440.535 69.6358 440.171 67.934 439.368 66.2951C438.565 64.7192 437.47 63.3325 436.156 62.1349C434.769 60.9372 433.163 59.9917 431.265 59.3614C429.44 58.668 427.469 58.2899 425.352 58.2899H349.363C347.392 58.2899 345.494 58.605 343.669 59.2984C341.918 59.9287 340.311 60.7481 338.997 61.8828C337.61 62.9543 336.515 64.278 335.64 65.7908C334.836 67.2406 334.325 68.8795 334.252 70.5813L334.179 85.9615V119.495L425.352 119.432ZM452.435 110.04C452.435 110.923 452.435 111.553 452.58 111.994C452.58 112.435 452.873 113.003 453.237 113.696C453.821 114.768 454.698 115.776 455.792 116.595C458.055 118.55 460.829 119.495 464.26 119.495V129.706C460.902 129.706 457.909 129.202 455.209 128.256C453.675 127.689 452.288 127.122 451.267 126.492C450.099 125.862 448.931 125.042 447.69 123.971L446.595 123.214L445.5 122.016V121.954C445.207 122.269 444.843 122.521 444.478 122.836C441.923 125.042 439.003 126.744 435.791 127.942C432.507 129.139 429.003 129.706 425.352 129.706H286.732V119.495H322.281V12.1735L334.325 12.1735L334.252 51.9234C335.713 50.9779 337.829 50.0955 340.603 49.2761C343.45 48.4566 346.37 48.0784 349.363 48.0784H425.352C429.003 48.0784 432.507 48.6457 435.791 49.7803C439.003 50.9779 441.923 52.6798 444.478 54.886C447.106 57.0922 449.076 59.6136 450.39 62.45C451.778 65.2865 452.435 68.2491 452.435 71.4638V110.04Z" fill="#0074CC"/>
<path d="M251.182 119.495C252.643 119.495 254.102 119.243 255.636 118.739C257.168 118.235 258.483 117.541 259.723 116.595C261.913 114.831 263.008 112.625 263.008 110.04V67.6187C263.008 66.295 262.716 65.0974 262.205 64.0888C261.694 62.9543 260.818 62.0088 259.723 61.0632C257.315 59.1093 254.468 58.1637 251.182 58.1637H203.88C202.274 58.1637 200.742 58.4159 199.282 58.8571C197.822 59.2984 196.507 60.0547 195.413 61.0632C193.15 62.8913 192.055 65.0344 192.055 67.6187V110.04C192.055 111.49 192.347 112.688 192.858 113.634C193.442 114.642 194.318 115.651 195.413 116.595C197.822 118.55 200.596 119.495 203.88 119.495H251.182ZM240.233 149.625C236.072 149.625 231.327 149.625 225.999 149.499V139.477H234.831C247.606 139.477 254.541 139.35 255.781 138.973C257.241 138.594 258.555 137.964 259.723 137.082C261.913 135.316 263.008 133.11 263.008 130.526V127.059C260.672 128.131 257.826 128.95 254.468 129.518C252.277 129.643 235.415 129.706 203.88 129.706C200.522 129.706 197.53 129.202 194.756 128.256C192.128 127.248 189.646 125.862 187.311 124.034C185.12 122.205 183.296 120.062 182.055 117.604C180.814 115.146 180.156 112.625 180.156 110.04V67.6187C180.156 64.9714 180.741 62.45 181.909 60.1178C183.15 57.7856 184.828 55.6424 187.164 53.7514C189.354 51.8604 191.909 50.4106 194.756 49.4651C197.53 48.4566 200.596 47.9523 203.88 47.9523H251.182C252.861 47.9523 254.322 48.0784 255.781 48.2675C257.095 48.4566 258.555 48.8348 260.088 49.4021C262.862 50.3476 265.416 51.7974 267.826 53.6253C269.943 55.3273 271.622 57.4073 272.935 59.9287C274.25 62.387 274.907 64.9714 274.907 67.6187V110.04C274.907 111.49 275.198 112.751 275.782 113.759C276.293 114.768 277.17 115.714 278.264 116.595C280.527 118.55 283.301 119.495 286.659 119.495V129.706C284.542 129.706 282.571 129.518 280.6 129.076C280.163 129.013 279.724 128.887 279.286 128.762C278.922 128.635 278.411 128.446 277.754 128.256L274.907 127.059V130.526C274.907 133.173 274.323 135.695 273.155 138.09C271.914 140.486 270.162 142.566 267.899 144.33C265.782 146.095 263.3 147.482 260.307 148.554C258.19 149.247 251.475 149.625 240.233 149.625Z" fill="#0074CC"/>
<path d="M116.43 129.518H39.4913C35.8415 129.518 32.3376 128.95 29.0528 127.753C25.8408 126.555 22.921 124.853 20.3661 122.647C17.8112 120.441 15.8403 117.919 14.4534 115.083C13.0665 112.247 12.4094 109.284 12.4094 106.132V91.8866C12.4094 86.5288 14.3074 81.7382 18.1762 77.452C14.3074 76.4435 10.9496 74.7416 8.10265 72.4093C5.47477 70.3292 3.50385 67.8709 2.1169 65.1605C0.729968 62.387 0 59.4244 0 56.2728V55.3273C0 52.2387 0.656972 49.2131 2.04391 46.3765C3.43086 43.54 5.40177 41.0187 7.95665 38.8125C10.5115 36.6064 13.4314 34.9044 16.7162 33.7068C20.0011 32.5722 23.432 31.9419 27.0818 31.9419H143.439V42.2163H27.0818C24.965 42.2163 22.994 42.5315 21.169 43.2249C19.3441 43.9182 17.7383 44.8637 16.3513 46.0614C15.0374 47.259 13.9424 48.6457 13.0665 50.2216C12.2635 51.8604 11.8985 53.5623 11.8985 55.3273V56.2728C11.8985 57.9746 12.2635 59.6136 12.9934 61.1264C13.7964 62.5761 14.8184 63.8368 16.2053 64.9083C17.5922 65.9799 19.1982 66.8624 21.0231 67.4927C22.921 68.06 24.8919 68.3752 27.0818 68.3752L143.439 68.4382V78.7126L38.6883 78.7757C36.7174 78.9017 34.8925 79.28 33.1406 79.9734C31.3156 80.6667 29.8557 81.6122 28.5418 82.8098C27.2278 84.0075 26.2059 85.3942 25.4029 86.907C24.6729 88.4828 24.3079 90.1217 24.3079 91.8866V106.132C24.3079 107.96 24.6729 109.662 25.4759 111.238C26.2789 112.877 27.3738 114.264 28.6877 115.461C30.0747 116.595 31.6806 117.541 33.5785 118.235C35.4034 118.928 37.3744 119.243 39.4913 119.243H116.43C118.474 119.243 120.445 118.928 122.269 118.235C124.094 117.541 125.7 116.595 127.088 115.461C128.474 114.264 129.569 112.877 130.372 111.238C131.176 109.662 131.613 107.96 131.613 106.132V100.963H143.439V106.132C143.439 109.284 142.781 112.247 141.395 115.083C140.081 117.919 138.11 120.441 135.555 122.647C133 124.853 130.081 126.555 126.795 127.753C123.437 128.95 120.007 129.518 116.43 129.518Z" fill="#0074CC"/>
<path d="M500.139 0.31253H512V12.1735H500.139V0.31253Z" fill="#0074CC"/>
<path d="M500.139 24.0345H512V35.8955H500.139V24.0345Z" fill="#0074CC"/>
</svg>
